PathFileType	4	(X/Y/Z)	11_2_89_p0_0-205_filt_butterworth.trc
DataRate	CameraRate	NumFrames	NumMarkers	Units	OrigDataRate	OrigDataStartFrame	OrigNumFrames
60.0	60.0	6	27	m	60.0	76	205
Frame#	Time	RHip			RKnee			RAnkle			RBigToe			RSmallToe			RHeel			LHip			LKnee			LAnkle			LBigToe			LSmallToe			LHeel			Neck			Head			Nose			RShoulder			RElbow			RWrist			RThumb			RIndex			RPinky			LShoulder			LElbow			LWrist			LThumb			LIndex			LPinky			
		X1	Y1	Z1	X2	Y2	Z2	X3	Y3	Z3	X4	Y4	Z4	X5	Y5	Z5	X6	Y6	Z6	X7	Y7	Z7	X8	Y8	Z8	X9	Y9	Z9	X10	Y10	Z10	X11	Y11	Z11	X12	Y12	Z12	X13	Y13	Z13	X14	Y14	Z14	X15	Y15	Z15	X16	Y16	Z16	X17	Y17	Z17	X18	Y18	Z18	X19	Y19	Z19	X20	Y20	Z20	X21	Y21	Z21	X22	Y22	Z22	X23	Y23	Z23	X24	Y24	Z24	X25	Y25	Z25	X26	Y26	Z26	X27	Y27	Z27	
76	1.2666666666666666	0.37772992925975524	0.5805657091714045	0.6274470853288742	0.37641257946421636	0.6391076989889857	1.06257903512476	0.35564366348291443	0.6933089017165636	1.4603686612747597	0.3523028890555455	0.5109051567584442	1.4412996174354946	0.4051283063512666	0.5515892771840744	1.442059920584199	0.33663195517933237	0.7968791133811375	1.5403680393717347	0.18337486532449007	0.5422480404564445	0.6195277939069088	0.15988005358167562	0.6387760103563354	1.0733206894706506	0.18155888317182478	0.6884450800464009	1.4439989407705567	0.20225239726084732	0.5001163777643902	1.4356895827545806	0.14431823166385746	0.5526421540401968	1.4361838422984803	0.18890133263454129	0.7544780467483563	1.5122623344598487	0.3098839020520785	0.4522211304203387	0.1281277715560798	0.37654933701237053	0.30534977328440305	-0.12155847167082692	0.37108590784581885	0.307757397591317	0.03206999129489387	0.4546574345129799	0.44058006253977	0.16583971537734277	0.44246211756052106	0.398973780268043	0.4152540069141353	0.3969662153856327	0.2503817825225981	0.24413108917820842	0.32381239915933374	0.26530390915513447	0.13515887466095927	0.3945376557401464	0.32748159252094405	0.1315612204756186	0.3789762269191554	0.21340554171882825	0.17717390162941254	0.16074324657896238	0.44476366830687275	0.14715266338457653	0.07722427353476727	0.5016782887539077	0.33817266605907037	0.14078331087151696	0.3475921635417966	0.38376869024506416	0.20092523467561785	0.26787700601354825	0.40750621251062336	0.18612532694664016	0.20579366693884754	0.42534397874745766	0.12274272595184081	0.26919911085350545	0.4584007920278105
77	1.2833333333333334	0.37755044351791534	0.580762085460554	0.6275015364780729	0.3768978702849554	0.6398657735459102	1.0627818469439654	0.3556537845068341	0.6933891328087594	1.4604541419049981	0.351890348306171	0.5107501586276287	1.4409025061626488	0.4060227542208385	0.5509165317131864	1.4433252100039897	0.33694494176724865	0.7975469618341733	1.5419944874131097	0.18343246390136403	0.5419240756132774	0.6196378961558309	0.15980730738571217	0.6387150877309254	1.073299997469093	0.18250349810436212	0.6894130828579763	1.4432403721713862	0.20261616843914648	0.5004607028339669	1.435813791011961	0.14437919686700623	0.5526322182762536	1.4360631237765704	0.18895678292754683	0.7543982480778311	1.512350687502802	0.3097176672868095	0.45247005703597265	0.12814077707500593	0.3766025310636745	0.30525565594844195	-0.12183537268742617	0.37107523017763583	0.30777267218816706	0.032168667112576585	0.45471212996978966	0.4404424195558262	0.16587791504122354	0.44315415453963647	0.39697673596855176	0.4134438354202232	0.39610446560209045	0.24773420426202064	0.2416076169021282	0.32217722099328633	0.2658940657167839	0.13350440868354735	0.3973511988909846	0.3363783562004608	0.13230572283002656	0.3777659678614381	0.21049175266569858	0.17537230188294617	0.1607300142895377	0.444591445080649	0.1471573043608009	0.07620835363489936	0.501065588789572	0.33821943220266154	0.14073903290790163	0.34756874942044297	0.38378245155462687	0.20070797212451727	0.26786313851963967	0.40703947447318156	0.18615122271249931	0.20591851034787545	0.4245503388767229	0.12073390083710249	0.27332995746455796	0.45908401143166916
78	1.3	0.37744110850120743	0.5792098780811018	0.6270440454379018	0.3770469165721334	0.6402210542486239	1.0628088998785745	0.35595061937510114	0.6949547010429389	1.4611793395634165	0.3515774133027315	0.5112573794935761	1.440208947227726	0.40734507853213453	0.5514145493193863	1.4448858748883249	0.3371090985381511	0.7979034318007425	1.5427836326724411	0.18385428440801016	0.5416790196429528	0.6197352854881674	0.15984782397114825	0.6387001670654395	1.0733041344454426	0.18374135433535577	0.6906781597322322	1.442247287074933	0.20271890338905027	0.500631650837212	1.4358764103500166	0.14442135164456674	0.5525871879383554	1.435942360927756	0.18895873305242641	0.7541689583097436	1.5122926383543747	0.30970175002900335	0.45252025849519095	0.12826993560143946	0.37664699963522663	0.3050549254254678	-0.12201418091052518	0.370423815729658	0.306546834445176	0.03221795330167632	0.45476482603153773	0.4401317037151049	0.16585228187908935	0.4439128039896333	0.3943875729895989	0.411872321528023	0.395839351448438	0.24476196626838922	0.24232994227788984	0.32362656847308946	0.26657405615337143	0.1348641459545184	0.395526374693576	0.3284334632133483	0.1327877233535502	0.378582415168425	0.20977324458356675	0.17580562123337667	0.16069581581386008	0.44439981233758435	0.1471587818045261	0.07570127071915936	0.5006964918630573	0.33819194861170865	0.1405791487250815	0.3461497982028613	0.38397990902160317	0.20053241826600682	0.26666769630525766	0.40759150896782836	0.18654492140086923	0.20601977523326032	0.4238742169739705	0.12028062465633965	0.2748123382038119	0.4592488149095722
79	1.3166666666666669	0.3777254443116224	0.5751981443917946	0.6258675763706472	0.3772856347975303	0.6404189811199367	1.0627956291848388	0.3567359774275761	0.6989698201929815	1.4631710229480202	0.3518064920835089	0.5136026404690808	1.4417238639470302	0.4085441065432782	0.5518152554846196	1.4460444657702378	0.33715409402016394	0.7980785197946965	1.5430266054973776	0.1846914038131502	0.5422993416517208	0.6198164836319301	0.16028448558903444	0.6388665642810489	1.0733447413313972	0.1846839132699895	0.6915966346102087	1.4414760699284224	0.20277968523264275	0.5003230565608492	1.4357073737440558	0.14442570676474709	0.5524646452605629	1.4358212354379511	0.1889297274312641	0.7538546490812372	1.512133399112838	0.3098796333304671	0.45234087987045524	0.1285772845142094	0.3766030583563591	0.3050885427191526	-0.12149521920922567	0.3687731974290118	0.3033938269250837	0.03213686201264895	0.4547965333994445	0.4397779199793193	0.16570781237277715	0.4451303136943249	0.3907128210785813	0.410952633659866	0.3963703485382294	0.24389811479340778	0.24560334856467808	0.32696846231236726	0.2673982965485462	0.13756160011989466	0.3893178569468076	0.3064714839754325	0.1314024507289004	0.38104960874210825	0.2112676395686146	0.17822203959763222	0.1606322206026758	0.44413721588241817	0.14714531920940407	0.07559404534155531	0.5004581110735095	0.33813314588642485	0.140184482910681	0.34279733350526176	0.3844320086669065	0.20033919513240372	0.26400379012348046	0.4084231723814631	0.18710358017650044	0.206065558129392	0.42402774674834326	0.12066512795629925	0.2751192795370293	0.4599257998841064
80	1.3333333333333333	0.3786047719646415	0.5699293967631438	0.624334380290783	0.37786734815522116	0.6405751905565493	1.0627830308729322	0.35778192151008303	0.7043025105754525	1.4658541083412993	0.3527797400741615	0.5179969059825806	1.446880359135341	0.40926714891951965	0.5516605806547829	1.4463430873876126	0.3371335497445691	0.7981795405732364	1.543048066083998	0.18551856008150558	0.5445465915592643	0.6198786059720608	0.1613219740388395	0.6393127906807915	1.0734355527114507	0.18506080825742718	0.691897191431267	1.4411386962394808	0.20282047068033737	0.49895821657327083	1.4350352595834615	0.14438754702814316	0.5523119561282549	1.4357267184302525	0.18887361599432653	0.753460881982569	1.5118874353786271	0.31006296474620426	0.45240056496092607	0.12923538344138563	0.3761283622806193	0.30606102502715926	-0.12017851578213859	0.36651328625245794	0.29920284365089816	0.03183712918199086	0.4548230442535608	0.4394518407661288	0.165482929667527	0.44642002387731355	0.3869457542828831	0.4106050725985382	0.39721176715337747	0.24569990700368124	0.25040499174968395	0.3310701127614909	0.266317526163031	0.1411004306247225	0.38124542414541984	0.2786497207734272	0.1287792859455956	0.38349245449241703	0.21358766883702868	0.1820715215644249	0.1605929140226792	0.4441257620221916	0.1471420390187543	0.07595561088989082	0.5005481254202415	0.3382839084090355	0.1396794085932481	0.33904369656490463	0.38488565673691916	0.19982111468687982	0.2607048587879884	0.40880222993271054	0.1872861036272607	0.20593307173810593	0.42514718131293394	0.12110034459117669	0.27501056388893846	0.4615110579228694
81	1.35	0.37996736067407133	0.5659644937017747	0.6231754297607811	0.37854854994315906	0.6406764300412489	1.0627590021753852	0.3585149237436976	0.7080495962916331	1.4677151830275519	0.35405289993015593	0.5219724298972062	1.4530641191486544	0.40941091161265597	0.5514983807078692	1.4462300760649691	0.3370935882934383	0.7982020138132321	1.542945895211534	0.18584512177622164	0.5481926139897934	0.6198661692692052	0.1626640162116417	0.6399120310766316	1.0735528218179973	0.18507121631491324	0.6918225268930571	1.44109027444027	0.20254857402426224	0.49664344364324314	1.4339535959874412	0.14433978952449497	0.5522655551571085	1.4356879046700937	0.1888348469577362	0.7531288248467809	1.5113325824183816	0.30974972058117983	0.45348901082320814	0.13009475859472353	0.37474375098833074	0.3084458797344824	-0.11881503768892204	0.3644656345684644	0.29589819137474066	0.03126286878709025	0.45486362585608386	0.43918814208945306	0.16553280104488247	0.44871742803020737	0.3878579811714459	0.41060025844494324	0.3981644197099955	0.2481724974540386	0.25668262372294026	0.3349399444669974	0.2609246401431984	0.14761850811704635	0.3752881039546364	0.25539885467405177	0.1298163127419818	0.3829214940475667	0.21357177047570108	0.18827754890469495	0.16073998663789374	0.44523347927686646	0.14721411367445628	0.07711917350063106	0.5016723816168898	0.33913801228329477	0.13937489684791265	0.3383337859239496	0.38483589500726756	0.19878891056347878	0.2585857548730923	0.40825708460563287	0.18643238892622344	0.205408388072374	0.42630945115797814	0.12099619608992002	0.2738000328205301	0.4626318564709792
